<svg width="156" height="25" viewBox="0 0 156 25" fill="none" xmlns="http://www.w3.org/2000/svg">
<path d="M5.25 0H0.75C0.335786 0 0 0.335787 0 0.75V17.25C0 17.6642 0.335786 18 0.75 18H5.25C5.66421 18 6 17.6642 6 17.25V0.75C6 0.335786 5.66421 0 5.25 0Z" fill="#0C131B"/>
<path d="M13.25 0H8.75C8.33579 0 8 0.335786 8 0.75V23.25C8 23.6642 8.33579 24 8.75 24H13.25C13.6642 24 14 23.6642 14 23.25V0.75C14 0.335786 13.6642 0 13.25 0Z" fill="#0C131B"/>
<path d="M34.012 24.2V17.258H33.596C33.4053 17.6047 33.128 17.9427 32.764 18.272C32.4 18.584 31.932 18.844 31.36 19.052C30.8053 19.26 30.112 19.364 29.28 19.364C28.2053 19.364 27.2173 19.104 26.316 18.584C25.4147 18.064 24.6953 17.3187 24.158 16.348C23.6207 15.36 23.352 14.1727 23.352 12.786V12.396C23.352 11.0093 23.6207 9.83067 24.158 8.86C24.7127 7.872 25.4407 7.118 26.342 6.598C27.2433 6.078 28.2227 5.818 29.28 5.818C30.528 5.818 31.4813 6.04333 32.14 6.494C32.816 6.94467 33.3187 7.456 33.648 8.028H34.064V6.182H36.69V24.2H34.012ZM30.034 17.024C31.2127 17.024 32.1747 16.6513 32.92 15.906C33.6653 15.1607 34.038 14.0947 34.038 12.708V12.474C34.038 11.1047 33.6567 10.0473 32.894 9.302C32.1487 8.55667 31.1953 8.184 30.034 8.184C28.89 8.184 27.9367 8.55667 27.174 9.302C26.4287 10.0473 26.056 11.1047 26.056 12.474V12.708C26.056 14.0947 26.4287 15.1607 27.174 15.906C27.9367 16.6513 28.89 17.024 30.034 17.024ZM43.7263 19.234C42.7556 19.234 41.8889 19.0173 41.1263 18.584C40.3636 18.1507 39.7656 17.5353 39.3323 16.738C38.8989 15.9407 38.6823 14.9873 38.6823 13.878V6.182H41.3603V13.696C41.3603 14.8053 41.6376 15.6287 42.1923 16.166C42.7469 16.686 43.5183 16.946 44.5063 16.946C45.5983 16.946 46.4736 16.582 47.1323 15.854C47.8083 15.1087 48.1463 14.0427 48.1463 12.656V6.182H50.8243V19H48.1983V17.076H47.7823C47.5396 17.596 47.1063 18.09 46.4823 18.558C45.8583 19.0087 44.9396 19.234 43.7263 19.234ZM60.373 19.364C59.125 19.364 58.163 19.1387 57.487 18.688C56.8283 18.2373 56.3343 17.7347 56.005 17.18H55.589V19H52.963V0.799999H55.641V7.924H56.057C56.265 7.57733 56.5423 7.248 56.889 6.936C57.2356 6.60667 57.695 6.338 58.267 6.13C58.839 5.922 59.541 5.818 60.373 5.818C61.4476 5.818 62.4356 6.078 63.337 6.598C64.2383 7.118 64.9576 7.872 65.495 8.86C66.0323 9.848 66.301 11.0267 66.301 12.396V12.786C66.301 14.1727 66.0236 15.36 65.469 16.348C64.9316 17.3187 64.2123 18.064 63.311 18.584C62.427 19.104 61.4476 19.364 60.373 19.364ZM59.593 17.024C60.7543 17.024 61.7076 16.6513 62.453 15.906C63.2156 15.1607 63.597 14.0947 63.597 12.708V12.474C63.597 11.1047 63.2243 10.0473 62.479 9.302C61.7336 8.55667 60.7716 8.184 59.593 8.184C58.449 8.184 57.4956 8.55667 56.733 9.302C55.9876 10.0473 55.615 11.1047 55.615 12.474V12.708C55.615 14.0947 55.9876 15.1607 56.733 15.906C57.4956 16.6513 58.449 17.024 59.593 17.024ZM67.7992 19V6.182H70.4772V19H67.7992ZM69.1512 4.44C68.6312 4.44 68.1892 4.27533 67.8252 3.946C67.4785 3.59933 67.3052 3.15733 67.3052 2.62C67.3052 2.08267 67.4785 1.64933 67.8252 1.32C68.1892 0.973332 68.6312 0.799999 69.1512 0.799999C69.6885 0.799999 70.1305 0.973332 70.4772 1.32C70.8239 1.64933 70.9972 2.08267 70.9972 2.62C70.9972 3.15733 70.8239 3.59933 70.4772 3.946C70.1305 4.27533 69.6885 4.44 69.1512 4.44ZM78.5855 19.364C77.3549 19.364 76.2369 19.104 75.2315 18.584C74.2435 18.064 73.4549 17.31 72.8655 16.322C72.2935 15.334 72.0075 14.1467 72.0075 12.76V12.422C72.0075 11.0353 72.2935 9.85667 72.8655 8.886C73.4549 7.898 74.2435 7.144 75.2315 6.624C76.2369 6.08667 77.3549 5.818 78.5855 5.818C79.8162 5.818 80.8649 6.04333 81.7315 6.494C82.5982 6.94467 83.2915 7.54267 83.8115 8.288C84.3489 9.03333 84.6955 9.85667 84.8515 10.758L82.2515 11.304C82.1649 10.732 81.9829 10.212 81.7055 9.744C81.4282 9.276 81.0382 8.90333 80.5355 8.626C80.0329 8.34867 79.4002 8.21 78.6375 8.21C77.8922 8.21 77.2162 8.38333 76.6095 8.73C76.0202 9.05933 75.5522 9.54467 75.2055 10.186C74.8589 10.81 74.6855 11.5727 74.6855 12.474V12.708C74.6855 13.6093 74.8589 14.3807 75.2055 15.022C75.5522 15.6633 76.0202 16.1487 76.6095 16.478C77.2162 16.8073 77.8922 16.972 78.6375 16.972C79.7642 16.972 80.6222 16.686 81.2115 16.114C81.8009 15.5247 82.1735 14.7793 82.3295 13.878L84.9295 14.476C84.7215 15.36 84.3489 16.1747 83.8115 16.92C83.2915 17.6653 82.5982 18.2633 81.7315 18.714C80.8649 19.1473 79.8162 19.364 78.5855 19.364Z" fill="#0C131B"/>
<path d="M103.532 24.2V16.998H103.168C102.96 17.3793 102.665 17.752 102.284 18.116C101.903 18.48 101.4 18.7747 100.776 19C100.169 19.2427 99.424 19.364 98.54 19.364C97.4307 19.364 96.4167 19.104 95.498 18.584C94.5967 18.064 93.8773 17.31 93.34 16.322C92.8027 15.334 92.534 14.164 92.534 12.812V12.474C92.534 11.1047 92.8027 9.93467 93.34 8.964C93.8773 7.99333 94.6053 7.248 95.524 6.728C96.4427 6.19067 97.448 5.922 98.54 5.922C99.8573 5.922 100.88 6.17333 101.608 6.676C102.336 7.17867 102.873 7.75067 103.22 8.392H103.584V6.286H105.586V24.2H103.532ZM99.086 17.544C100.403 17.544 101.469 17.128 102.284 16.296C103.116 15.4467 103.532 14.268 103.532 12.76V12.526C103.532 11.018 103.116 9.848 102.284 9.016C101.469 8.16667 100.403 7.742 99.086 7.742C97.786 7.742 96.7113 8.16667 95.862 9.016C95.03 9.848 94.614 11.018 94.614 12.526V12.76C94.614 14.268 95.03 15.4467 95.862 16.296C96.7113 17.128 97.786 17.544 99.086 17.544ZM113.894 19.364C112.612 19.364 111.485 19.0953 110.514 18.558C109.544 18.0033 108.79 17.232 108.252 16.244C107.715 15.256 107.446 14.112 107.446 12.812V12.5C107.446 11.1827 107.715 10.03 108.252 9.042C108.79 8.054 109.535 7.29133 110.488 6.754C111.442 6.19933 112.534 5.922 113.764 5.922C114.96 5.922 116.018 6.182 116.936 6.702C117.855 7.20467 118.574 7.93267 119.094 8.886C119.614 9.83933 119.874 10.9573 119.874 12.24V13.176H109.5C109.552 14.5453 109.994 15.62 110.826 16.4C111.658 17.1627 112.698 17.544 113.946 17.544C115.038 17.544 115.879 17.2927 116.468 16.79C117.058 16.2873 117.508 15.6893 117.82 14.996L119.588 15.854C119.328 16.3913 118.964 16.9287 118.496 17.466C118.046 18.0033 117.448 18.454 116.702 18.818C115.974 19.182 115.038 19.364 113.894 19.364ZM109.526 11.486H117.794C117.725 10.3073 117.318 9.38867 116.572 8.73C115.844 8.07133 114.908 7.742 113.764 7.742C112.603 7.742 111.65 8.07133 110.904 8.73C110.159 9.38867 109.7 10.3073 109.526 11.486ZM125.537 19.364C124.653 19.364 123.847 19.208 123.119 18.896C122.391 18.584 121.819 18.1333 121.403 17.544C120.987 16.9547 120.779 16.2353 120.779 15.386C120.779 14.5193 120.987 13.8087 121.403 13.254C121.819 12.682 122.391 12.2573 123.119 11.98C123.847 11.6853 124.662 11.538 125.563 11.538H129.853V10.602C129.853 9.70067 129.584 8.99 129.047 8.47C128.527 7.95 127.747 7.69 126.707 7.69C125.684 7.69 124.887 7.94133 124.315 8.444C123.743 8.92933 123.353 9.588 123.145 10.42L121.221 9.796C121.429 9.08533 121.758 8.444 122.209 7.872C122.66 7.28267 123.258 6.81467 124.003 6.468C124.766 6.104 125.676 5.922 126.733 5.922C128.362 5.922 129.628 6.34667 130.529 7.196C131.43 8.028 131.881 9.20667 131.881 10.732V16.478C131.881 16.998 132.124 17.258 132.609 17.258H133.779V19H131.985C131.413 19 130.954 18.844 130.607 18.532C130.26 18.2027 130.087 17.7693 130.087 17.232V17.102H129.775C129.584 17.4313 129.324 17.778 128.995 18.142C128.683 18.4887 128.25 18.7747 127.695 19C127.14 19.2427 126.421 19.364 125.537 19.364ZM125.771 17.596C126.984 17.596 127.964 17.2407 128.709 16.53C129.472 15.802 129.853 14.788 129.853 13.488V13.202H125.641C124.826 13.202 124.15 13.384 123.613 13.748C123.093 14.0947 122.833 14.6233 122.833 15.334C122.833 16.0447 123.102 16.5993 123.639 16.998C124.194 17.3967 124.904 17.596 125.771 17.596ZM134.772 19V6.286H136.774V7.846H137.138C137.364 7.29133 137.71 6.884 138.178 6.624C138.646 6.364 139.262 6.234 140.024 6.234H141.532V8.106H139.894C138.976 8.106 138.23 8.366 137.658 8.886C137.104 9.38867 136.826 10.1773 136.826 11.252V19H134.772ZM142.753 19V6.286H144.755V8.444H145.119C145.396 7.83733 145.864 7.29133 146.523 6.806C147.199 6.30333 148.187 6.052 149.487 6.052C150.44 6.052 151.29 6.25133 152.035 6.65C152.798 7.04867 153.404 7.638 153.855 8.418C154.306 9.198 154.531 10.16 154.531 11.304V19H152.477V11.46C152.477 10.1947 152.156 9.276 151.515 8.704C150.891 8.132 150.042 7.846 148.967 7.846C147.736 7.846 146.731 8.24467 145.951 9.042C145.188 9.83933 144.807 11.0267 144.807 12.604V19H142.753Z" fill="#61F0FE"/>
</svg>